HIERARCHY
ROOT Hips
{
    OFFSET 0.000000 0.000000 0.000000
    CHANNELS 6 Xposition Yposition Zposition Zrotation Xrotation Yrotation
    JOINT Spine
    {
        OFFSET -0.000000 8.185774 0.000000
        CHANNELS 3 Zrotation Xrotation Yrotation
        JOINT Spine1
        {
            OFFSET -0.000000 23.949169 0.000000
            CHANNELS 3 Zrotation Xrotation Yrotation
            JOINT Neck
            {
                OFFSET -0.000000 23.850817 2.168256
                CHANNELS 3 Zrotation Xrotation Yrotation
                JOINT Head
                {
                    OFFSET -0.000000 13.975711 -1.996530
                    CHANNELS 3 Zrotation Xrotation Yrotation
                    End Site
                    {
                        OFFSET -0.000000 24.956627 0.000000
                    }
                }
            }
            JOINT LeftShoulder
            {
                OFFSET 3.979389 22.161966 -0.249083
                CHANNELS 3 Zrotation Xrotation Yrotation
                JOINT LeftArm
                {
                    OFFSET 10.812937 0.000000 0.000000
                    CHANNELS 3 Zrotation Xrotation Yrotation
                    JOINT LeftForeArm
                    {
                        OFFSET 31.697208 0.000000 0.000000
                        CHANNELS 3 Zrotation Xrotation Yrotation
                        JOINT LeftHand
                        {
                            OFFSET 27.047384 0.000000 0.000000
                            CHANNELS 3 Zrotation Xrotation Yrotation
                            End Site
                            {
                                OFFSET 14.973977 0.000000 0.000000
                            }
                        }
                    }
                }
            }
            JOINT RightShoulder
            {
                OFFSET -4.006446 22.161966 -0.249083
                CHANNELS 3 Zrotation Xrotation Yrotation
                JOINT RightArm
                {
                    OFFSET -10.812937 0.000000 0.000000
                    CHANNELS 3 Zrotation Xrotation Yrotation
                    JOINT RightForeArm
                    {
                        OFFSET -31.697208 0.000000 0.000000
                        CHANNELS 3 Zrotation Xrotation Yrotation
                        JOINT RightHand
                        {
                            OFFSET -27.047384 0.000000 0.000000
                            CHANNELS 3 Zrotation Xrotation Yrotation
                            End Site
                            {
                                OFFSET -14.973977 0.000000 0.000000
                            }
                        }
                    }
                }
            }
        }
    }
    JOINT LeftUpLeg
    {
        OFFSET 9.982651 0.000000 0.000000
        CHANNELS 3 Zrotation Xrotation Yrotation
        JOINT LeftLeg
        {
            OFFSET -0.000000 -38.511635 0.000000
            CHANNELS 3 Zrotation Xrotation Yrotation
            JOINT LeftFoot
            {
                OFFSET -0.000000 -44.789326 0.000000
                CHANNELS 3 Zrotation Xrotation Yrotation
                JOINT LeftToeBase
                {
                    OFFSET -0.000000 -6.488723 14.973977
                    CHANNELS 3 Zrotation Xrotation Yrotation
                    End Site
                    {
                        OFFSET -0.000000 0.000000 3.993060
                    }
                }
            }
        }
    }
    JOINT RightUpLeg
    {
        OFFSET -9.982651 0.000000 0.000000
        CHANNELS 3 Zrotation Xrotation Yrotation
        JOINT RightLeg
        {
            OFFSET -0.000000 -38.511635 0.000000
            CHANNELS 3 Zrotation Xrotation Yrotation
            JOINT RightFoot
            {
                OFFSET -0.000000 -44.789326 0.000000
                CHANNELS 3 Zrotation Xrotation Yrotation
                JOINT RightToeBase
                {
                    OFFSET -0.000000 -6.488723 14.973977
                    CHANNELS 3 Zrotation Xrotation Yrotation
                    End Site
                    {
                        OFFSET -0.000000 0.000000 3.993060
                    }
                }
            }
        }
    }
}
MOTION
Frames:    14
Frame Time:    0.008333
-6.599911    90.768494    84.245209    0.131796    -14.081946    177.332764    -1.584686    -6.726214    4.279131    6.417551    10.357845    3.790046    -6.768778    19.831518    -14.472128    4.690531    21.192011    -15.539434    1.396861    10.545108    3.348028    -81.324135    40.514137    14.062099    -1.003921    -5.205813    -24.845741    -6.152655    -5.577921    2.838018    -13.072558    1.358011    1.937724    66.439209    39.391418    16.408949    -15.797482    -7.504279    40.579689    -6.842401    -0.647866    -16.527807    7.726359    -55.637001    10.381936    1.388658    44.391239    -1.717252    -15.726672    7.424216    5.936558    0.000000    0.000000    0.000000    3.583187    -3.494318    -4.800323    -0.363506    11.500556    8.108364    -3.286817    -16.026701    -19.668539    0.000000    0.000000    0.000000    
-6.582104    90.617805    83.111404    0.117428    -14.352948    177.031845    -1.704246    -6.724145    4.466831    6.221576    10.357283    4.002585    -7.114101    19.771084    -14.418025    5.117915    21.454910    -15.525004    1.517220    10.787449    3.592636    -81.997543    40.267109    14.966305    -0.911541    -4.741395    -25.800882    -5.468803    -5.076871    2.676962    -13.026536    0.978334    1.774264    66.306076    39.402939    16.582352    -15.631608    -7.355505    41.277138    -7.275752    -0.372289    -16.769043    7.723100    -55.821640    10.218627    1.324705    42.298916    -1.289668    -16.941652    8.347241    6.287830    0.000000    0.000000    0.000000    3.582286    -3.055540    -4.828026    -0.435329    11.465320    8.153153    -3.104876    -16.035967    -19.503351    0.000000    0.000000    0.000000    
-6.568133    90.460602    81.941925    0.071411    -14.653891    176.741379    -1.929356    -6.721614    4.679128    6.100734    10.199997    4.247528    -6.891609    19.930418    -14.460348    4.642342    21.247866    -15.537992    1.419413    11.164640    3.874260    -82.231850    39.840305    15.671387    -1.457191    -4.729067    -27.347805    -3.880325    -5.202412    3.557722    -13.020042    1.220193    1.609269    66.101227    39.604271    16.979305    -16.300543    -7.301863    41.840141    -7.144796    -0.005798    -16.481831    7.755793    -55.965740    10.073726    1.143933    40.430969    -0.972725    -17.909979    8.918604    6.731331    0.000000    0.000000    0.000000    3.621722    -2.611948    -5.200808    -0.729276    11.393081    8.348361    -2.732388    -16.069965    -19.117264    0.000000    0.000000    0.000000    
-6.559878    90.289032    80.749298    0.031177    -14.882827    176.318024    -2.107179    -6.717474    4.905168    5.942381    10.149866    4.500735    -7.184910    20.085129    -14.386438    5.053006    21.226891    -15.501906    1.402722    11.525784    4.079190    -82.481644    39.163445    16.419666    -1.786144    -4.386239    -28.579039    -2.835485    -4.924916    3.451982    -13.073437    1.072306    1.646320    66.275429    39.826584    16.890017    -16.897041    -7.247983    42.436954    -6.711554    0.325826    -16.556910    7.940149    -55.977577    9.985856    0.880177    38.758060    -0.245038    -18.351944    9.236626    6.611026    0.000000    0.000000    0.000000    3.546355    -2.282840    -4.923742    -0.733574    11.682369    8.433657    -2.562150    -16.103825    -19.209566    0.000000    0.000000    0.000000    
-6.578171    90.109253    79.544220    -0.053264    -15.043962    176.010574    -2.294548    -6.797978    5.048337    5.771177    10.359524    4.661111    -7.354884    19.892756    -14.368815    5.050205    21.492033    -15.488640    1.215369    11.759827    4.360980    -82.796059    38.787434    17.272409    -1.637405    -4.289886    -29.917246    -2.077773    -4.801787    4.189419    -13.247168    1.028170    1.736441    66.553955    39.354027    16.971573    -17.057486    -6.741196    43.162117    -7.166497    1.113671    -16.872400    7.986710    -56.051563    9.622608    0.511386    37.661362    0.100160    -19.149618    9.173840    7.098168    0.000000    0.000000    0.000000    3.459861    -1.889389    -5.073486    -0.945973    12.051552    9.483133    -2.456038    -16.252399    -19.856241    0.000000    0.000000    0.000000    
-6.554292    89.929649    78.261421    0.013667    -15.137298    175.742630    -2.358224    -6.987734    5.154897    5.537679    10.886154    4.770914    -7.220497    19.506069    -14.242158    4.585421    21.651367    -15.306973    1.308982    11.830713    4.561969    -83.107635    37.885754    18.106628    -1.873891    -3.992623    -31.357269    -1.093604    -4.557890    4.275663    -13.603748    0.429393    1.976997    67.241982    39.542229    16.592920    -17.328360    -6.770496    43.601322    -7.762935    1.322175    -16.330891    8.303165    -56.014423    9.233526    -0.092995    36.764530    0.992398    -19.650677    9.078923    7.257585    0.000000    0.000000    0.000000    3.545213    -1.523270    -5.117782    -1.189640    12.553744    8.929869    -1.888967    -16.145256    -19.050922    0.000000    0.000000    0.000000    
-6.543399    89.743439    77.001205    0.063068    -15.262690    175.462784    -2.489136    -7.080660    5.298640    5.374698    11.124166    4.928974    -7.605830    19.257816    -14.151237    5.070305    22.009090    -15.249599    1.239971    12.116318    4.790788    -83.057358    37.092060    18.595158    -2.247887    -4.078495    -32.733280    -0.282716    -4.748373    4.705292    -13.658810    0.572034    1.566567    67.000282    39.711525    17.287613    -17.489658    -6.588700    43.988125    -7.180508    1.562143    -16.411198    8.595170    -56.053635    9.294431    -0.411471    36.363045    2.269486    -19.733082    8.921636    6.766889    0.000000    0.000000    0.000000    3.613274    -1.302256    -5.364781    -1.512587    13.376106    10.340826    -1.776998    -16.222116    -19.904667    0.000000    0.000000    0.000000    
-6.521160    89.556740    75.712654    0.135455    -15.338808    175.100433    -2.721356    -7.180263    5.544216    5.330122    11.420565    5.181735    -7.127846    19.362312    -14.292705    4.540989    21.410082    -15.334063    1.237104    12.326466    4.828732    -83.000046    36.120686    19.019012    -2.835086    -4.152732    -34.156315    1.038105    -4.973909    5.227508    -13.812833    0.585975    1.344117    67.073387    39.832069    17.460438    -17.545448    -6.451053    44.385094    -7.171527    1.780690    -16.202253    9.257225    -56.047005    9.575368    -1.105340    36.383892    3.463834    -19.423286    8.747843    6.787490    0.000000    0.000000    0.000000    3.722469    -1.214451    -5.185773    -1.855719    14.455174    10.792469    -1.395507    -16.156710    -20.132721    0.000000    0.000000    0.000000    
-6.473920    89.365219    74.434135    0.330313    -15.455007    174.877396    -2.818537    -7.115108    5.677521    5.187115    11.378802    5.335765    -6.980627    19.274839    -14.207747    4.450553    21.452835    -15.232218    1.106308    12.403941    5.031253    -82.812836    35.255314    19.512774    -3.336606    -4.286206    -35.098198    2.015052    -5.239154    5.636800    -13.795270    0.629863    1.260242    67.355705    39.532967    17.437923    -17.240683    -5.909050    44.729492    -7.756204    2.299790    -15.583159    9.915733    -56.137089    10.143358    -1.545290    36.867256    4.672744    -19.029339    8.569863    6.631596    0.000000    0.000000    0.000000    3.949649    -1.426981    -5.344495    -2.284494    16.034945    11.690392    -1.000190    -16.076115    -20.523956    0.000000    0.000000    0.000000    
-6.440469    89.173203    73.139740    0.477745    -15.521415    174.488312    -2.923450    -7.098256    5.840612    5.010050    11.518281    5.516470    -6.992175    19.169695    -14.047014    4.601264    21.371603    -15.062108    1.052309    12.505892    5.132428    -82.600136    34.331097    19.713280    -3.931753    -4.466621    -35.883827    3.157479    -5.565648    6.174445    -13.892377    0.518689    1.122282    67.675972    39.543739    17.416269    -16.685818    -5.897841    45.068623    -8.277447    2.183451    -15.264053    10.843258    -56.098915    11.089459    -2.107296    37.724850    5.636270    -18.932285    8.358809    7.056233    0.000000    0.000000    0.000000    4.148506    -1.722890    -5.523615    -2.871928    17.736282    11.663294    -0.177141    -15.839862    -19.807373    0.000000    0.000000    0.000000    
-6.443758    88.977821    71.803917    0.641579    -15.596546    174.089905    -3.104922    -7.266404    6.053087    5.016181    11.892866    5.727584    -6.868333    19.064575    -14.064527    4.634542    21.184473    -15.063455    1.132704    12.573302    5.070972    -82.621017    33.598198    19.677250    -4.872345    -5.330823    -36.629089    4.684382    -6.654824    6.897879    -14.065670    0.465188    0.745587    67.770798    39.968361    17.526175    -16.281635    -5.750696    45.254364    -9.196545    2.293764    -15.008589    11.760768    -56.000381    12.157517    -2.852941    38.959404    7.640116    -16.309599    7.969599    5.714936    0.000000    0.000000    0.000000    4.193567    -2.292688    -5.018826    -3.058243    20.016996    12.009261    0.441722    -15.583096    -20.125128    0.000000    0.000000    0.000000    
-6.382256    88.797523    70.468155    0.897249    -15.560012    173.577026    -3.089245    -7.139380    6.090285    4.770627    11.993654    5.781727    -7.119973    18.895901    -13.763523    4.752096    21.303171    -14.755751    0.959503    12.549156    5.386630    -82.439651    33.060688    19.795879    -5.651112    -6.062883    -37.107224    5.869009    -7.547288    7.856688    -14.186181    0.404874    0.844705    68.264687    39.908703    17.622753    -15.716310    -5.538235    45.174034    -9.968156    2.302405    -14.411096    13.101525    -55.665596    13.874682    -3.506510    40.394241    8.726945    -13.072411    6.890714    4.177811    0.000000    0.000000    0.000000    4.371202    -2.943833    -4.838470    -3.464225    22.608664    12.589529    1.198213    -15.085103    -20.077801    0.000000    0.000000    0.000000    
-6.354761    88.619919    69.098045    1.092644    -15.629759    173.084732    -3.295630    -7.335562    6.225024    4.788048    12.360362    5.917683    -6.976495    18.776611    -13.681267    4.575858    21.122297    -14.641421    0.999064    12.562842    5.309060    -82.328697    32.602165    19.430607    -6.665499    -7.052210    -37.287205    7.000704    -8.766810    8.492845    -14.328051    0.336764    0.709846    68.627609    40.126072    17.584595    -15.460128    -5.590264    45.061451    -9.693344    2.088262    -14.409065    14.224252    -55.368294    15.704483    -3.774544    41.966877    8.172788    -9.683969    5.262012    2.743028    0.000000    0.000000    0.000000    4.384281    -4.021210    -4.774323    -3.930314    25.681652    13.377814    2.626995    -14.329157    -19.703991    0.000000    0.000000    0.000000    
-6.337873    88.478134    67.722832    1.313882    -15.623190    172.584885    -3.447094    -7.262567    6.370615    4.665224    12.416040    6.081827    -6.809504    18.857267    -13.541016    4.708617    20.902052    -14.493013    1.011607    12.486602    5.021582    -82.635841    32.498646    19.264868    -7.259312    -8.916399    -37.327023    8.100528    -10.703673    9.044093    -14.241048    0.280838    0.533089    69.031517    40.351604    17.282406    -15.420665    -5.155264    44.876675    -9.593142    2.453860    -14.266134    15.192980    -54.856865    17.612816    -3.605485    43.390343    6.682544    -6.245549    3.798331    1.258610    0.000000    0.000000    0.000000    4.437446    -5.513185    -5.682901    -5.207562    29.435396    15.272149    3.731413    -13.052148    -19.383276    0.000000    0.000000    0.000000    
